<mxfile host="Electron" agent="Mozilla/5.0 (Windows NT 10.0; Win64; x64) AppleWebKit/537.36 (KHTML, like Gecko) draw.io/24.7.17 Chrome/128.0.6613.36 Electron/32.0.1 Safari/537.36" version="24.7.17" pages="6">
  <diagram name="Page-1" id="-H_mtQnk-PTXWXPvYvuk">
    <mxGraphModel dx="954" dy="674" grid="1" gridSize="10" guides="1" tooltips="1" connect="1" arrows="1" fold="1" page="1" pageScale="1" pageWidth="1169" pageHeight="827" math="0" shadow="0">
      <root>
        <mxCell id="0" />
        <mxCell id="1" parent="0" />
        <mxCell id="zA23MoTUsTF4_91t8viU-2" value="MongoDB" style="shape=cylinder3;whiteSpace=wrap;html=1;boundedLbl=1;backgroundOutline=1;size=15;" vertex="1" parent="1">
          <mxGeometry x="560" y="280" width="60" height="80" as="geometry" />
        </mxCell>
        <mxCell id="zA23MoTUsTF4_91t8viU-3" value="pymongo-api" style="rounded=1;whiteSpace=wrap;html=1;" vertex="1" parent="1">
          <mxGeometry x="360" y="290" width="120" height="60" as="geometry" />
        </mxCell>
        <mxCell id="zA23MoTUsTF4_91t8viU-4" style="edgeStyle=orthogonalEdgeStyle;rounded=0;orthogonalLoop=1;jettySize=auto;html=1;exitX=1;exitY=0.5;exitDx=0;exitDy=0;entryX=0;entryY=0.5;entryDx=0;entryDy=0;entryPerimeter=0;" edge="1" parent="1" source="zA23MoTUsTF4_91t8viU-3" target="zA23MoTUsTF4_91t8viU-2">
          <mxGeometry relative="1" as="geometry" />
        </mxCell>
      </root>
    </mxGraphModel>
  </diagram>
  <diagram id="4KozUUpea-sKYp2Ztxqa" name="mongo-sharding">
    <mxGraphModel dx="1195" dy="697" grid="1" gridSize="10" guides="1" tooltips="1" connect="1" arrows="1" fold="1" page="1" pageScale="1" pageWidth="827" pageHeight="1169" math="0" shadow="0">
      <root>
        <mxCell id="0" />
        <mxCell id="1" parent="0" />
        <mxCell id="xEpE2KhXtXYese9WTmwJ-2" value="pymongo-api" style="rounded=1;whiteSpace=wrap;html=1;" vertex="1" parent="1">
          <mxGeometry x="360" y="140" width="120" height="60" as="geometry" />
        </mxCell>
        <mxCell id="xEpE2KhXtXYese9WTmwJ-19" value="" style="group" vertex="1" connectable="0" parent="1">
          <mxGeometry x="285" y="220" width="310" height="290" as="geometry" />
        </mxCell>
        <mxCell id="xEpE2KhXtXYese9WTmwJ-4" value="" style="rounded=1;whiteSpace=wrap;html=1;fillColor=#d5e8d4;strokeColor=#82b366;" vertex="1" parent="xEpE2KhXtXYese9WTmwJ-19">
          <mxGeometry width="310" height="290" as="geometry" />
        </mxCell>
        <mxCell id="xEpE2KhXtXYese9WTmwJ-1" value="MongoDB&lt;br&gt;(shard-1)" style="shape=cylinder3;whiteSpace=wrap;html=1;boundedLbl=1;backgroundOutline=1;size=15;" vertex="1" parent="xEpE2KhXtXYese9WTmwJ-19">
          <mxGeometry x="20" y="150" width="90" height="90" as="geometry" />
        </mxCell>
        <mxCell id="xEpE2KhXtXYese9WTmwJ-5" value="DB Layer" style="text;html=1;align=center;verticalAlign=middle;whiteSpace=wrap;rounded=0;" vertex="1" parent="xEpE2KhXtXYese9WTmwJ-19">
          <mxGeometry x="20" y="10" width="60" height="30" as="geometry" />
        </mxCell>
        <mxCell id="xEpE2KhXtXYese9WTmwJ-6" value="config-server" style="rounded=1;whiteSpace=wrap;html=1;" vertex="1" parent="xEpE2KhXtXYese9WTmwJ-19">
          <mxGeometry x="200" y="40" width="90" height="30" as="geometry" />
        </mxCell>
        <mxCell id="xEpE2KhXtXYese9WTmwJ-8" value="MongoDB&lt;br&gt;(shard-2)" style="shape=cylinder3;whiteSpace=wrap;html=1;boundedLbl=1;backgroundOutline=1;size=15;" vertex="1" parent="xEpE2KhXtXYese9WTmwJ-19">
          <mxGeometry x="160" y="150" width="90" height="90" as="geometry" />
        </mxCell>
        <mxCell id="xEpE2KhXtXYese9WTmwJ-12" value="" style="edgeStyle=orthogonalEdgeStyle;rounded=0;orthogonalLoop=1;jettySize=auto;html=1;" edge="1" parent="xEpE2KhXtXYese9WTmwJ-19" source="xEpE2KhXtXYese9WTmwJ-11" target="xEpE2KhXtXYese9WTmwJ-8">
          <mxGeometry relative="1" as="geometry" />
        </mxCell>
        <mxCell id="xEpE2KhXtXYese9WTmwJ-15" style="edgeStyle=orthogonalEdgeStyle;rounded=0;orthogonalLoop=1;jettySize=auto;html=1;exitX=1;exitY=0.5;exitDx=0;exitDy=0;entryX=0;entryY=0.5;entryDx=0;entryDy=0;" edge="1" parent="xEpE2KhXtXYese9WTmwJ-19" source="xEpE2KhXtXYese9WTmwJ-11" target="xEpE2KhXtXYese9WTmwJ-6">
          <mxGeometry relative="1" as="geometry" />
        </mxCell>
        <mxCell id="xEpE2KhXtXYese9WTmwJ-11" value="Router" style="rounded=1;whiteSpace=wrap;html=1;" vertex="1" parent="xEpE2KhXtXYese9WTmwJ-19">
          <mxGeometry x="100" y="40" width="70" height="30" as="geometry" />
        </mxCell>
        <mxCell id="xEpE2KhXtXYese9WTmwJ-16" style="edgeStyle=orthogonalEdgeStyle;rounded=0;orthogonalLoop=1;jettySize=auto;html=1;exitX=0.5;exitY=1;exitDx=0;exitDy=0;entryX=0.5;entryY=0;entryDx=0;entryDy=0;entryPerimeter=0;" edge="1" parent="xEpE2KhXtXYese9WTmwJ-19" source="xEpE2KhXtXYese9WTmwJ-11" target="xEpE2KhXtXYese9WTmwJ-1">
          <mxGeometry relative="1" as="geometry" />
        </mxCell>
        <mxCell id="xEpE2KhXtXYese9WTmwJ-17" style="edgeStyle=orthogonalEdgeStyle;rounded=0;orthogonalLoop=1;jettySize=auto;html=1;exitX=0.75;exitY=1;exitDx=0;exitDy=0;entryX=0.5;entryY=1;entryDx=0;entryDy=0;entryPerimeter=0;" edge="1" parent="xEpE2KhXtXYese9WTmwJ-19" source="xEpE2KhXtXYese9WTmwJ-6" target="xEpE2KhXtXYese9WTmwJ-8">
          <mxGeometry relative="1" as="geometry">
            <Array as="points">
              <mxPoint x="268" y="110" />
              <mxPoint x="268" y="110" />
              <mxPoint x="268" y="260" />
              <mxPoint x="205" y="260" />
            </Array>
          </mxGeometry>
        </mxCell>
        <mxCell id="xEpE2KhXtXYese9WTmwJ-18" style="edgeStyle=orthogonalEdgeStyle;rounded=0;orthogonalLoop=1;jettySize=auto;html=1;entryX=0.464;entryY=0.985;entryDx=0;entryDy=0;entryPerimeter=0;" edge="1" parent="xEpE2KhXtXYese9WTmwJ-19" target="xEpE2KhXtXYese9WTmwJ-1">
          <mxGeometry relative="1" as="geometry">
            <mxPoint x="280" y="70" as="sourcePoint" />
            <Array as="points">
              <mxPoint x="280" y="270" />
              <mxPoint x="62" y="270" />
            </Array>
          </mxGeometry>
        </mxCell>
        <mxCell id="xEpE2KhXtXYese9WTmwJ-22" style="edgeStyle=orthogonalEdgeStyle;rounded=0;orthogonalLoop=1;jettySize=auto;html=1;entryX=0.5;entryY=0;entryDx=0;entryDy=0;" edge="1" parent="1" source="xEpE2KhXtXYese9WTmwJ-2" target="xEpE2KhXtXYese9WTmwJ-11">
          <mxGeometry relative="1" as="geometry" />
        </mxCell>
      </root>
    </mxGraphModel>
  </diagram>
  <diagram id="_N9rKzSuerD7rCsLZpZk" name="mongo-sharding-repl">
    <mxGraphModel dx="1687" dy="984" grid="1" gridSize="10" guides="1" tooltips="1" connect="1" arrows="1" fold="1" page="1" pageScale="1" pageWidth="827" pageHeight="1169" math="0" shadow="0">
      <root>
        <mxCell id="0" />
        <mxCell id="1" parent="0" />
        <mxCell id="0RjC9Z8ngsXjNMB3v__Y-1" value="pymongo-api" style="rounded=1;whiteSpace=wrap;html=1;" vertex="1" parent="1">
          <mxGeometry x="360" y="90" width="120" height="60" as="geometry" />
        </mxCell>
        <mxCell id="0RjC9Z8ngsXjNMB3v__Y-3" value="" style="rounded=1;whiteSpace=wrap;html=1;fillColor=#d5e8d4;strokeColor=#82b366;" vertex="1" parent="1">
          <mxGeometry x="70" y="190" width="640" height="490" as="geometry" />
        </mxCell>
        <mxCell id="0RjC9Z8ngsXjNMB3v__Y-5" value="DB Layer" style="text;html=1;align=center;verticalAlign=middle;whiteSpace=wrap;rounded=0;" vertex="1" parent="1">
          <mxGeometry x="91.93548387096774" y="206.00985221674878" width="125.80645161290323" height="48.02955665024632" as="geometry" />
        </mxCell>
        <mxCell id="EGV30tM4cM4k8Ipd7CNv-1" style="edgeStyle=orthogonalEdgeStyle;rounded=0;orthogonalLoop=1;jettySize=auto;html=1;exitX=0.888;exitY=1.001;exitDx=0;exitDy=0;entryX=0.5;entryY=1;entryDx=0;entryDy=0;exitPerimeter=0;" edge="1" parent="1" source="0RjC9Z8ngsXjNMB3v__Y-6" target="0RjC9Z8ngsXjNMB3v__Y-27">
          <mxGeometry relative="1" as="geometry" />
        </mxCell>
        <mxCell id="0RjC9Z8ngsXjNMB3v__Y-6" value="config-server" style="rounded=1;whiteSpace=wrap;html=1;" vertex="1" parent="1">
          <mxGeometry x="469.35483870967744" y="254.03940886699507" width="188.70967741935485" height="48.02955665024632" as="geometry" />
        </mxCell>
        <mxCell id="0RjC9Z8ngsXjNMB3v__Y-9" style="edgeStyle=orthogonalEdgeStyle;rounded=0;orthogonalLoop=1;jettySize=auto;html=1;exitX=1;exitY=0.5;exitDx=0;exitDy=0;entryX=0;entryY=0.5;entryDx=0;entryDy=0;" edge="1" parent="1" source="0RjC9Z8ngsXjNMB3v__Y-10" target="0RjC9Z8ngsXjNMB3v__Y-6">
          <mxGeometry relative="1" as="geometry" />
        </mxCell>
        <mxCell id="0RjC9Z8ngsXjNMB3v__Y-34" style="edgeStyle=orthogonalEdgeStyle;rounded=0;orthogonalLoop=1;jettySize=auto;html=1;exitX=0.5;exitY=1;exitDx=0;exitDy=0;entryX=0.5;entryY=0;entryDx=0;entryDy=0;" edge="1" parent="1">
          <mxGeometry relative="1" as="geometry">
            <mxPoint x="333.0645161290323" y="366.42825123152716" as="sourcePoint" />
            <mxPoint x="521.13" y="495.78785714285715" as="targetPoint" />
          </mxGeometry>
        </mxCell>
        <mxCell id="0RjC9Z8ngsXjNMB3v__Y-10" value="Router" style="rounded=1;whiteSpace=wrap;html=1;" vertex="1" parent="1">
          <mxGeometry x="259.6774193548387" y="254.03940886699507" width="146.7741935483871" height="48.02955665024632" as="geometry" />
        </mxCell>
        <mxCell id="0RjC9Z8ngsXjNMB3v__Y-11" style="edgeStyle=orthogonalEdgeStyle;rounded=0;orthogonalLoop=1;jettySize=auto;html=1;exitX=0.5;exitY=1;exitDx=0;exitDy=0;entryX=0.5;entryY=0;entryDx=0;entryDy=0;entryPerimeter=0;" edge="1" parent="1" source="0RjC9Z8ngsXjNMB3v__Y-10">
          <mxGeometry relative="1" as="geometry">
            <mxPoint x="186.29032258064512" y="430.14778325123166" as="targetPoint" />
            <Array as="points">
              <mxPoint x="333" y="366.42857142857144" />
              <mxPoint x="186" y="366.42857142857144" />
            </Array>
          </mxGeometry>
        </mxCell>
        <mxCell id="0RjC9Z8ngsXjNMB3v__Y-16" value="" style="rounded=1;whiteSpace=wrap;html=1;fillColor=#dae8fc;strokeColor=#6c8ebf;" vertex="1" parent="1">
          <mxGeometry x="97.74000000000001" y="431.42857142857144" width="242.26" height="185.71428571428572" as="geometry" />
        </mxCell>
        <mxCell id="0RjC9Z8ngsXjNMB3v__Y-18" value="Replica 1" style="text;html=1;align=center;verticalAlign=middle;whiteSpace=wrap;rounded=0;" vertex="1" parent="1">
          <mxGeometry x="100" y="440.7142857142857" width="80" height="27.857142857142858" as="geometry" />
        </mxCell>
        <mxCell id="0RjC9Z8ngsXjNMB3v__Y-15" value="MongoDB - Primary&lt;br&gt;(shard-1)" style="shape=cylinder3;whiteSpace=wrap;html=1;boundedLbl=1;backgroundOutline=1;size=6;" vertex="1" parent="1">
          <mxGeometry x="183.87" y="459.2857142857143" width="70" height="55.714285714285715" as="geometry" />
        </mxCell>
        <mxCell id="0RjC9Z8ngsXjNMB3v__Y-20" value="MongoDB - Secondary&lt;br&gt;(shard-1-2)" style="shape=cylinder3;whiteSpace=wrap;html=1;boundedLbl=1;backgroundOutline=1;size=6;" vertex="1" parent="1">
          <mxGeometry x="120.97" y="533.5714285714287" width="70" height="65" as="geometry" />
        </mxCell>
        <mxCell id="0RjC9Z8ngsXjNMB3v__Y-21" value="MongoDB - Secondary&lt;br&gt;(shard-1-3)" style="shape=cylinder3;whiteSpace=wrap;html=1;boundedLbl=1;backgroundOutline=1;size=6;" vertex="1" parent="1">
          <mxGeometry x="253.87" y="533.5714285714287" width="70" height="65" as="geometry" />
        </mxCell>
        <mxCell id="0RjC9Z8ngsXjNMB3v__Y-24" style="edgeStyle=orthogonalEdgeStyle;rounded=0;orthogonalLoop=1;jettySize=auto;html=1;exitX=0.5;exitY=1;exitDx=0;exitDy=0;exitPerimeter=0;entryX=0;entryY=0.5;entryDx=0;entryDy=0;entryPerimeter=0;" edge="1" parent="1" source="0RjC9Z8ngsXjNMB3v__Y-15" target="0RjC9Z8ngsXjNMB3v__Y-21">
          <mxGeometry relative="1" as="geometry" />
        </mxCell>
        <mxCell id="0RjC9Z8ngsXjNMB3v__Y-25" style="edgeStyle=orthogonalEdgeStyle;rounded=0;orthogonalLoop=1;jettySize=auto;html=1;exitX=0.5;exitY=1;exitDx=0;exitDy=0;exitPerimeter=0;entryX=1;entryY=0.5;entryDx=0;entryDy=0;entryPerimeter=0;" edge="1" parent="1" source="0RjC9Z8ngsXjNMB3v__Y-15" target="0RjC9Z8ngsXjNMB3v__Y-20">
          <mxGeometry relative="1" as="geometry" />
        </mxCell>
        <mxCell id="0RjC9Z8ngsXjNMB3v__Y-27" value="" style="rounded=1;whiteSpace=wrap;html=1;fillColor=#dae8fc;strokeColor=#6c8ebf;" vertex="1" parent="1">
          <mxGeometry x="370" y="431.42857142857144" width="242.26" height="185.71428571428572" as="geometry" />
        </mxCell>
        <mxCell id="0RjC9Z8ngsXjNMB3v__Y-28" value="Replica 2" style="text;html=1;align=center;verticalAlign=middle;whiteSpace=wrap;rounded=0;" vertex="1" parent="1">
          <mxGeometry x="373.87" y="440.7142857142857" width="82.26" height="27.857142857142858" as="geometry" />
        </mxCell>
        <mxCell id="0RjC9Z8ngsXjNMB3v__Y-29" value="MongoDB - Primary&lt;br&gt;(shard-1)" style="shape=cylinder3;whiteSpace=wrap;html=1;boundedLbl=1;backgroundOutline=1;size=6;" vertex="1" parent="1">
          <mxGeometry x="456.13" y="459.2857142857143" width="70" height="55.714285714285715" as="geometry" />
        </mxCell>
        <mxCell id="0RjC9Z8ngsXjNMB3v__Y-30" value="MongoDB - Secondary&lt;br&gt;(shard-1-2)" style="shape=cylinder3;whiteSpace=wrap;html=1;boundedLbl=1;backgroundOutline=1;size=6;" vertex="1" parent="1">
          <mxGeometry x="393.23" y="533.5714285714287" width="70" height="65" as="geometry" />
        </mxCell>
        <mxCell id="0RjC9Z8ngsXjNMB3v__Y-31" value="MongoDB - Secondary&lt;br&gt;(shard-1-3)" style="shape=cylinder3;whiteSpace=wrap;html=1;boundedLbl=1;backgroundOutline=1;size=6;" vertex="1" parent="1">
          <mxGeometry x="526.13" y="533.5714285714287" width="70" height="65" as="geometry" />
        </mxCell>
        <mxCell id="0RjC9Z8ngsXjNMB3v__Y-32" style="edgeStyle=orthogonalEdgeStyle;rounded=0;orthogonalLoop=1;jettySize=auto;html=1;exitX=0.5;exitY=1;exitDx=0;exitDy=0;exitPerimeter=0;entryX=0;entryY=0.5;entryDx=0;entryDy=0;entryPerimeter=0;" edge="1" parent="1" source="0RjC9Z8ngsXjNMB3v__Y-29" target="0RjC9Z8ngsXjNMB3v__Y-31">
          <mxGeometry relative="1" as="geometry" />
        </mxCell>
        <mxCell id="0RjC9Z8ngsXjNMB3v__Y-33" style="edgeStyle=orthogonalEdgeStyle;rounded=0;orthogonalLoop=1;jettySize=auto;html=1;exitX=0.5;exitY=1;exitDx=0;exitDy=0;exitPerimeter=0;entryX=1;entryY=0.5;entryDx=0;entryDy=0;entryPerimeter=0;" edge="1" parent="1" source="0RjC9Z8ngsXjNMB3v__Y-29" target="0RjC9Z8ngsXjNMB3v__Y-30">
          <mxGeometry relative="1" as="geometry" />
        </mxCell>
        <mxCell id="0RjC9Z8ngsXjNMB3v__Y-35" style="edgeStyle=orthogonalEdgeStyle;rounded=0;orthogonalLoop=1;jettySize=auto;html=1;entryX=0.422;entryY=1;entryDx=0;entryDy=0;entryPerimeter=0;" edge="1" parent="1" source="0RjC9Z8ngsXjNMB3v__Y-6" target="0RjC9Z8ngsXjNMB3v__Y-16">
          <mxGeometry relative="1" as="geometry">
            <Array as="points">
              <mxPoint x="670" y="278" />
              <mxPoint x="670" y="650" />
              <mxPoint x="200" y="650" />
            </Array>
          </mxGeometry>
        </mxCell>
        <mxCell id="0RjC9Z8ngsXjNMB3v__Y-14" style="edgeStyle=orthogonalEdgeStyle;rounded=0;orthogonalLoop=1;jettySize=auto;html=1;entryX=0.5;entryY=0;entryDx=0;entryDy=0;" edge="1" parent="1" source="0RjC9Z8ngsXjNMB3v__Y-1" target="0RjC9Z8ngsXjNMB3v__Y-10">
          <mxGeometry relative="1" as="geometry" />
        </mxCell>
      </root>
    </mxGraphModel>
  </diagram>
  <diagram id="Dr1fQqhPnVoqKQj7r4NU" name="sharding-repl-cache">
    <mxGraphModel dx="1687" dy="984" grid="1" gridSize="10" guides="1" tooltips="1" connect="1" arrows="1" fold="1" page="1" pageScale="1" pageWidth="827" pageHeight="1169" math="0" shadow="0">
      <root>
        <mxCell id="0" />
        <mxCell id="1" parent="0" />
        <mxCell id="oj4OpJByMlKzJSB1W4L8-1" value="pymongo-api" style="rounded=1;whiteSpace=wrap;html=1;" vertex="1" parent="1">
          <mxGeometry x="360" y="90" width="120" height="60" as="geometry" />
        </mxCell>
        <mxCell id="oj4OpJByMlKzJSB1W4L8-2" value="" style="rounded=1;whiteSpace=wrap;html=1;fillColor=#d5e8d4;strokeColor=#82b366;" vertex="1" parent="1">
          <mxGeometry x="70" y="190" width="640" height="490" as="geometry" />
        </mxCell>
        <mxCell id="oj4OpJByMlKzJSB1W4L8-3" value="DB Cluster" style="text;html=1;align=center;verticalAlign=middle;whiteSpace=wrap;rounded=0;" vertex="1" parent="1">
          <mxGeometry x="91.93548387096774" y="206.00985221674878" width="125.80645161290323" height="48.02955665024632" as="geometry" />
        </mxCell>
        <mxCell id="oj4OpJByMlKzJSB1W4L8-4" style="edgeStyle=orthogonalEdgeStyle;rounded=0;orthogonalLoop=1;jettySize=auto;html=1;exitX=0.888;exitY=1.001;exitDx=0;exitDy=0;entryX=0.5;entryY=1;entryDx=0;entryDy=0;exitPerimeter=0;" edge="1" parent="1" source="oj4OpJByMlKzJSB1W4L8-5" target="oj4OpJByMlKzJSB1W4L8-17">
          <mxGeometry relative="1" as="geometry" />
        </mxCell>
        <mxCell id="oj4OpJByMlKzJSB1W4L8-5" value="config-server" style="rounded=1;whiteSpace=wrap;html=1;" vertex="1" parent="1">
          <mxGeometry x="469.35483870967744" y="254.03940886699507" width="188.70967741935485" height="48.02955665024632" as="geometry" />
        </mxCell>
        <mxCell id="oj4OpJByMlKzJSB1W4L8-6" style="edgeStyle=orthogonalEdgeStyle;rounded=0;orthogonalLoop=1;jettySize=auto;html=1;exitX=1;exitY=0.5;exitDx=0;exitDy=0;entryX=0;entryY=0.5;entryDx=0;entryDy=0;" edge="1" parent="1" source="oj4OpJByMlKzJSB1W4L8-8" target="oj4OpJByMlKzJSB1W4L8-5">
          <mxGeometry relative="1" as="geometry" />
        </mxCell>
        <mxCell id="oj4OpJByMlKzJSB1W4L8-7" style="edgeStyle=orthogonalEdgeStyle;rounded=0;orthogonalLoop=1;jettySize=auto;html=1;exitX=0.5;exitY=1;exitDx=0;exitDy=0;entryX=0.5;entryY=0;entryDx=0;entryDy=0;" edge="1" parent="1">
          <mxGeometry relative="1" as="geometry">
            <mxPoint x="333.0645161290323" y="366.42825123152716" as="sourcePoint" />
            <mxPoint x="521.13" y="495.78785714285715" as="targetPoint" />
          </mxGeometry>
        </mxCell>
        <mxCell id="oj4OpJByMlKzJSB1W4L8-8" value="Router" style="rounded=1;whiteSpace=wrap;html=1;" vertex="1" parent="1">
          <mxGeometry x="259.6774193548387" y="254.03940886699507" width="146.7741935483871" height="48.02955665024632" as="geometry" />
        </mxCell>
        <mxCell id="oj4OpJByMlKzJSB1W4L8-9" style="edgeStyle=orthogonalEdgeStyle;rounded=0;orthogonalLoop=1;jettySize=auto;html=1;exitX=0.5;exitY=1;exitDx=0;exitDy=0;entryX=0.5;entryY=0;entryDx=0;entryDy=0;entryPerimeter=0;" edge="1" parent="1" source="oj4OpJByMlKzJSB1W4L8-8">
          <mxGeometry relative="1" as="geometry">
            <mxPoint x="186.29032258064512" y="430.14778325123166" as="targetPoint" />
            <Array as="points">
              <mxPoint x="333" y="366.42857142857144" />
              <mxPoint x="186" y="366.42857142857144" />
            </Array>
          </mxGeometry>
        </mxCell>
        <mxCell id="oj4OpJByMlKzJSB1W4L8-10" value="" style="rounded=1;whiteSpace=wrap;html=1;fillColor=#dae8fc;strokeColor=#6c8ebf;" vertex="1" parent="1">
          <mxGeometry x="97.74000000000001" y="431.42857142857144" width="242.26" height="185.71428571428572" as="geometry" />
        </mxCell>
        <mxCell id="oj4OpJByMlKzJSB1W4L8-11" value="Replica 1" style="text;html=1;align=center;verticalAlign=middle;whiteSpace=wrap;rounded=0;" vertex="1" parent="1">
          <mxGeometry x="100" y="440.7142857142857" width="80" height="27.857142857142858" as="geometry" />
        </mxCell>
        <mxCell id="oj4OpJByMlKzJSB1W4L8-12" value="MongoDB - Primary&lt;br&gt;(shard-1)" style="shape=cylinder3;whiteSpace=wrap;html=1;boundedLbl=1;backgroundOutline=1;size=6;" vertex="1" parent="1">
          <mxGeometry x="183.87" y="459.2857142857143" width="70" height="55.714285714285715" as="geometry" />
        </mxCell>
        <mxCell id="oj4OpJByMlKzJSB1W4L8-13" value="MongoDB - Secondary&lt;br&gt;(shard-1-2)" style="shape=cylinder3;whiteSpace=wrap;html=1;boundedLbl=1;backgroundOutline=1;size=6;" vertex="1" parent="1">
          <mxGeometry x="120.97" y="533.5714285714287" width="70" height="65" as="geometry" />
        </mxCell>
        <mxCell id="oj4OpJByMlKzJSB1W4L8-14" value="MongoDB - Secondary&lt;br&gt;(shard-1-3)" style="shape=cylinder3;whiteSpace=wrap;html=1;boundedLbl=1;backgroundOutline=1;size=6;" vertex="1" parent="1">
          <mxGeometry x="253.87" y="533.5714285714287" width="70" height="65" as="geometry" />
        </mxCell>
        <mxCell id="oj4OpJByMlKzJSB1W4L8-15" style="edgeStyle=orthogonalEdgeStyle;rounded=0;orthogonalLoop=1;jettySize=auto;html=1;exitX=0.5;exitY=1;exitDx=0;exitDy=0;exitPerimeter=0;entryX=0;entryY=0.5;entryDx=0;entryDy=0;entryPerimeter=0;" edge="1" parent="1" source="oj4OpJByMlKzJSB1W4L8-12" target="oj4OpJByMlKzJSB1W4L8-14">
          <mxGeometry relative="1" as="geometry" />
        </mxCell>
        <mxCell id="oj4OpJByMlKzJSB1W4L8-16" style="edgeStyle=orthogonalEdgeStyle;rounded=0;orthogonalLoop=1;jettySize=auto;html=1;exitX=0.5;exitY=1;exitDx=0;exitDy=0;exitPerimeter=0;entryX=1;entryY=0.5;entryDx=0;entryDy=0;entryPerimeter=0;" edge="1" parent="1" source="oj4OpJByMlKzJSB1W4L8-12" target="oj4OpJByMlKzJSB1W4L8-13">
          <mxGeometry relative="1" as="geometry" />
        </mxCell>
        <mxCell id="oj4OpJByMlKzJSB1W4L8-17" value="" style="rounded=1;whiteSpace=wrap;html=1;fillColor=#dae8fc;strokeColor=#6c8ebf;" vertex="1" parent="1">
          <mxGeometry x="370" y="431.42857142857144" width="242.26" height="185.71428571428572" as="geometry" />
        </mxCell>
        <mxCell id="oj4OpJByMlKzJSB1W4L8-18" value="Replica 2" style="text;html=1;align=center;verticalAlign=middle;whiteSpace=wrap;rounded=0;" vertex="1" parent="1">
          <mxGeometry x="373.87" y="440.7142857142857" width="82.26" height="27.857142857142858" as="geometry" />
        </mxCell>
        <mxCell id="oj4OpJByMlKzJSB1W4L8-19" value="MongoDB - Primary&lt;br&gt;(shard-1)" style="shape=cylinder3;whiteSpace=wrap;html=1;boundedLbl=1;backgroundOutline=1;size=6;" vertex="1" parent="1">
          <mxGeometry x="456.13" y="459.2857142857143" width="70" height="55.714285714285715" as="geometry" />
        </mxCell>
        <mxCell id="oj4OpJByMlKzJSB1W4L8-20" value="MongoDB - Secondary&lt;br&gt;(shard-1-2)" style="shape=cylinder3;whiteSpace=wrap;html=1;boundedLbl=1;backgroundOutline=1;size=6;" vertex="1" parent="1">
          <mxGeometry x="393.23" y="533.5714285714287" width="70" height="65" as="geometry" />
        </mxCell>
        <mxCell id="oj4OpJByMlKzJSB1W4L8-21" value="MongoDB - Secondary&lt;br&gt;(shard-1-3)" style="shape=cylinder3;whiteSpace=wrap;html=1;boundedLbl=1;backgroundOutline=1;size=6;" vertex="1" parent="1">
          <mxGeometry x="526.13" y="533.5714285714287" width="70" height="65" as="geometry" />
        </mxCell>
        <mxCell id="oj4OpJByMlKzJSB1W4L8-22" style="edgeStyle=orthogonalEdgeStyle;rounded=0;orthogonalLoop=1;jettySize=auto;html=1;exitX=0.5;exitY=1;exitDx=0;exitDy=0;exitPerimeter=0;entryX=0;entryY=0.5;entryDx=0;entryDy=0;entryPerimeter=0;" edge="1" parent="1" source="oj4OpJByMlKzJSB1W4L8-19" target="oj4OpJByMlKzJSB1W4L8-21">
          <mxGeometry relative="1" as="geometry" />
        </mxCell>
        <mxCell id="oj4OpJByMlKzJSB1W4L8-23" style="edgeStyle=orthogonalEdgeStyle;rounded=0;orthogonalLoop=1;jettySize=auto;html=1;exitX=0.5;exitY=1;exitDx=0;exitDy=0;exitPerimeter=0;entryX=1;entryY=0.5;entryDx=0;entryDy=0;entryPerimeter=0;" edge="1" parent="1" source="oj4OpJByMlKzJSB1W4L8-19" target="oj4OpJByMlKzJSB1W4L8-20">
          <mxGeometry relative="1" as="geometry" />
        </mxCell>
        <mxCell id="oj4OpJByMlKzJSB1W4L8-24" style="edgeStyle=orthogonalEdgeStyle;rounded=0;orthogonalLoop=1;jettySize=auto;html=1;entryX=0.422;entryY=1;entryDx=0;entryDy=0;entryPerimeter=0;" edge="1" parent="1" source="oj4OpJByMlKzJSB1W4L8-5" target="oj4OpJByMlKzJSB1W4L8-10">
          <mxGeometry relative="1" as="geometry">
            <Array as="points">
              <mxPoint x="670" y="278" />
              <mxPoint x="670" y="650" />
              <mxPoint x="200" y="650" />
            </Array>
          </mxGeometry>
        </mxCell>
        <mxCell id="oj4OpJByMlKzJSB1W4L8-25" style="edgeStyle=orthogonalEdgeStyle;rounded=0;orthogonalLoop=1;jettySize=auto;html=1;entryX=0.5;entryY=0;entryDx=0;entryDy=0;" edge="1" parent="1" source="oj4OpJByMlKzJSB1W4L8-1" target="oj4OpJByMlKzJSB1W4L8-8">
          <mxGeometry relative="1" as="geometry" />
        </mxCell>
        <mxCell id="oj4OpJByMlKzJSB1W4L8-26" value="" style="rounded=1;whiteSpace=wrap;html=1;fillColor=#e1d5e7;strokeColor=#9673a6;" vertex="1" parent="1">
          <mxGeometry x="800" y="200.02" width="150" height="249.98" as="geometry" />
        </mxCell>
        <mxCell id="oj4OpJByMlKzJSB1W4L8-27" value="Redis Cluster" style="text;html=1;align=center;verticalAlign=middle;whiteSpace=wrap;rounded=0;" vertex="1" parent="1">
          <mxGeometry x="812.0954838709678" y="206.00985221674878" width="125.80645161290323" height="48.02955665024632" as="geometry" />
        </mxCell>
        <mxCell id="oj4OpJByMlKzJSB1W4L8-28" value="&lt;div&gt;&lt;span style=&quot;background-color: initial;&quot;&gt;redis-1&lt;br&gt;&lt;/span&gt;(master)&lt;/div&gt;" style="shape=cylinder3;whiteSpace=wrap;html=1;boundedLbl=1;backgroundOutline=1;size=15;" vertex="1" parent="1">
          <mxGeometry x="840" y="264.04" width="70" height="70" as="geometry" />
        </mxCell>
        <mxCell id="oj4OpJByMlKzJSB1W4L8-29" value="&lt;div&gt;&lt;span style=&quot;background-color: initial;&quot;&gt;redis-1&lt;br&gt;&lt;/span&gt;(slave)&lt;/div&gt;" style="shape=cylinder3;whiteSpace=wrap;html=1;boundedLbl=1;backgroundOutline=1;size=15;" vertex="1" parent="1">
          <mxGeometry x="840" y="354.75000000000006" width="70" height="70" as="geometry" />
        </mxCell>
        <mxCell id="oj4OpJByMlKzJSB1W4L8-30" style="edgeStyle=orthogonalEdgeStyle;rounded=0;orthogonalLoop=1;jettySize=auto;html=1;exitX=0.5;exitY=1;exitDx=0;exitDy=0;exitPerimeter=0;entryX=0.5;entryY=0;entryDx=0;entryDy=0;entryPerimeter=0;" edge="1" parent="1" source="oj4OpJByMlKzJSB1W4L8-28" target="oj4OpJByMlKzJSB1W4L8-29">
          <mxGeometry relative="1" as="geometry" />
        </mxCell>
        <mxCell id="oj4OpJByMlKzJSB1W4L8-31" style="edgeStyle=orthogonalEdgeStyle;rounded=0;orthogonalLoop=1;jettySize=auto;html=1;exitX=1;exitY=0.5;exitDx=0;exitDy=0;entryX=0.528;entryY=-0.005;entryDx=0;entryDy=0;entryPerimeter=0;" edge="1" parent="1" source="oj4OpJByMlKzJSB1W4L8-1" target="oj4OpJByMlKzJSB1W4L8-26">
          <mxGeometry relative="1" as="geometry">
            <mxPoint x="880" y="190" as="targetPoint" />
          </mxGeometry>
        </mxCell>
      </root>
    </mxGraphModel>
  </diagram>
  <diagram id="g_hufMQvTL6l9Rlz3vJc" name="api-gateway">
    <mxGraphModel dx="1041" dy="1181" grid="1" gridSize="10" guides="1" tooltips="1" connect="1" arrows="1" fold="1" page="1" pageScale="1" pageWidth="827" pageHeight="1169" math="0" shadow="0">
      <root>
        <mxCell id="0" />
        <mxCell id="1" parent="0" />
        <mxCell id="ZLt139lBljewuqngMx6--4" style="edgeStyle=orthogonalEdgeStyle;rounded=0;orthogonalLoop=1;jettySize=auto;html=1;exitX=0.888;exitY=1.001;exitDx=0;exitDy=0;entryX=0.5;entryY=1;entryDx=0;entryDy=0;exitPerimeter=0;" edge="1" parent="1" source="ZLt139lBljewuqngMx6--5" target="ZLt139lBljewuqngMx6--17">
          <mxGeometry relative="1" as="geometry" />
        </mxCell>
        <mxCell id="ZLt139lBljewuqngMx6--5" value="config-server" style="rounded=1;whiteSpace=wrap;html=1;" vertex="1" parent="1">
          <mxGeometry x="532.5848387096775" y="519.999408866995" width="188.70967741935485" height="48.02955665024632" as="geometry" />
        </mxCell>
        <mxCell id="ZLt139lBljewuqngMx6--6" style="edgeStyle=orthogonalEdgeStyle;rounded=0;orthogonalLoop=1;jettySize=auto;html=1;exitX=1;exitY=0.5;exitDx=0;exitDy=0;entryX=0;entryY=0.5;entryDx=0;entryDy=0;" edge="1" parent="1" source="ZLt139lBljewuqngMx6--8" target="ZLt139lBljewuqngMx6--5">
          <mxGeometry relative="1" as="geometry" />
        </mxCell>
        <mxCell id="ZLt139lBljewuqngMx6--7" style="edgeStyle=orthogonalEdgeStyle;rounded=0;orthogonalLoop=1;jettySize=auto;html=1;exitX=0.5;exitY=1;exitDx=0;exitDy=0;entryX=0.5;entryY=0;entryDx=0;entryDy=0;" edge="1" parent="1">
          <mxGeometry relative="1" as="geometry">
            <mxPoint x="396.29451612903233" y="632.3882512315272" as="sourcePoint" />
            <mxPoint x="584.36" y="761.7478571428571" as="targetPoint" />
          </mxGeometry>
        </mxCell>
        <mxCell id="ZLt139lBljewuqngMx6--8" value="Router" style="rounded=1;whiteSpace=wrap;html=1;" vertex="1" parent="1">
          <mxGeometry x="322.9074193548387" y="519.999408866995" width="146.7741935483871" height="48.02955665024632" as="geometry" />
        </mxCell>
        <mxCell id="ZLt139lBljewuqngMx6--9" style="edgeStyle=orthogonalEdgeStyle;rounded=0;orthogonalLoop=1;jettySize=auto;html=1;exitX=0.5;exitY=1;exitDx=0;exitDy=0;entryX=0.5;entryY=0;entryDx=0;entryDy=0;entryPerimeter=0;" edge="1" parent="1" source="ZLt139lBljewuqngMx6--8">
          <mxGeometry relative="1" as="geometry">
            <mxPoint x="249.52032258064511" y="696.1077832512317" as="targetPoint" />
            <Array as="points">
              <mxPoint x="396.23" y="632.3885714285715" />
              <mxPoint x="249.23" y="632.3885714285715" />
            </Array>
          </mxGeometry>
        </mxCell>
        <mxCell id="ZLt139lBljewuqngMx6--10" value="" style="rounded=1;whiteSpace=wrap;html=1;fillColor=#dae8fc;strokeColor=#6c8ebf;" vertex="1" parent="1">
          <mxGeometry x="160.97" y="697.3885714285715" width="242.26" height="185.71428571428572" as="geometry" />
        </mxCell>
        <mxCell id="ZLt139lBljewuqngMx6--11" value="Replica 1" style="text;html=1;align=center;verticalAlign=middle;whiteSpace=wrap;rounded=0;" vertex="1" parent="1">
          <mxGeometry x="163.23" y="706.6742857142858" width="80" height="27.857142857142858" as="geometry" />
        </mxCell>
        <mxCell id="ZLt139lBljewuqngMx6--12" value="MongoDB - Primary&lt;br&gt;(shard-1)" style="shape=cylinder3;whiteSpace=wrap;html=1;boundedLbl=1;backgroundOutline=1;size=6;" vertex="1" parent="1">
          <mxGeometry x="247.1" y="725.2457142857143" width="70" height="55.714285714285715" as="geometry" />
        </mxCell>
        <mxCell id="ZLt139lBljewuqngMx6--13" value="MongoDB - Secondary&lt;br&gt;(shard-1-2)" style="shape=cylinder3;whiteSpace=wrap;html=1;boundedLbl=1;backgroundOutline=1;size=6;" vertex="1" parent="1">
          <mxGeometry x="184.2" y="799.5314285714287" width="70" height="65" as="geometry" />
        </mxCell>
        <mxCell id="ZLt139lBljewuqngMx6--14" value="MongoDB - Secondary&lt;br&gt;(shard-1-3)" style="shape=cylinder3;whiteSpace=wrap;html=1;boundedLbl=1;backgroundOutline=1;size=6;" vertex="1" parent="1">
          <mxGeometry x="317.1" y="799.5314285714287" width="70" height="65" as="geometry" />
        </mxCell>
        <mxCell id="ZLt139lBljewuqngMx6--15" style="edgeStyle=orthogonalEdgeStyle;rounded=0;orthogonalLoop=1;jettySize=auto;html=1;exitX=0.5;exitY=1;exitDx=0;exitDy=0;exitPerimeter=0;entryX=0;entryY=0.5;entryDx=0;entryDy=0;entryPerimeter=0;" edge="1" parent="1" source="ZLt139lBljewuqngMx6--12" target="ZLt139lBljewuqngMx6--14">
          <mxGeometry relative="1" as="geometry" />
        </mxCell>
        <mxCell id="ZLt139lBljewuqngMx6--16" style="edgeStyle=orthogonalEdgeStyle;rounded=0;orthogonalLoop=1;jettySize=auto;html=1;exitX=0.5;exitY=1;exitDx=0;exitDy=0;exitPerimeter=0;entryX=1;entryY=0.5;entryDx=0;entryDy=0;entryPerimeter=0;" edge="1" parent="1" source="ZLt139lBljewuqngMx6--12" target="ZLt139lBljewuqngMx6--13">
          <mxGeometry relative="1" as="geometry" />
        </mxCell>
        <mxCell id="ZLt139lBljewuqngMx6--17" value="" style="rounded=1;whiteSpace=wrap;html=1;fillColor=#dae8fc;strokeColor=#6c8ebf;" vertex="1" parent="1">
          <mxGeometry x="433.23" y="697.3885714285715" width="242.26" height="185.71428571428572" as="geometry" />
        </mxCell>
        <mxCell id="ZLt139lBljewuqngMx6--18" value="Replica 2" style="text;html=1;align=center;verticalAlign=middle;whiteSpace=wrap;rounded=0;" vertex="1" parent="1">
          <mxGeometry x="437.1" y="706.6742857142858" width="82.26" height="27.857142857142858" as="geometry" />
        </mxCell>
        <mxCell id="ZLt139lBljewuqngMx6--19" value="MongoDB - Primary&lt;br&gt;(shard-1)" style="shape=cylinder3;whiteSpace=wrap;html=1;boundedLbl=1;backgroundOutline=1;size=6;" vertex="1" parent="1">
          <mxGeometry x="519.36" y="725.2457142857143" width="70" height="55.714285714285715" as="geometry" />
        </mxCell>
        <mxCell id="ZLt139lBljewuqngMx6--20" value="MongoDB - Secondary&lt;br&gt;(shard-1-2)" style="shape=cylinder3;whiteSpace=wrap;html=1;boundedLbl=1;backgroundOutline=1;size=6;" vertex="1" parent="1">
          <mxGeometry x="456.46000000000004" y="799.5314285714287" width="70" height="65" as="geometry" />
        </mxCell>
        <mxCell id="ZLt139lBljewuqngMx6--21" value="MongoDB - Secondary&lt;br&gt;(shard-1-3)" style="shape=cylinder3;whiteSpace=wrap;html=1;boundedLbl=1;backgroundOutline=1;size=6;" vertex="1" parent="1">
          <mxGeometry x="589.36" y="799.5314285714287" width="70" height="65" as="geometry" />
        </mxCell>
        <mxCell id="ZLt139lBljewuqngMx6--22" style="edgeStyle=orthogonalEdgeStyle;rounded=0;orthogonalLoop=1;jettySize=auto;html=1;exitX=0.5;exitY=1;exitDx=0;exitDy=0;exitPerimeter=0;entryX=0;entryY=0.5;entryDx=0;entryDy=0;entryPerimeter=0;" edge="1" parent="1" source="ZLt139lBljewuqngMx6--19" target="ZLt139lBljewuqngMx6--21">
          <mxGeometry relative="1" as="geometry" />
        </mxCell>
        <mxCell id="ZLt139lBljewuqngMx6--23" style="edgeStyle=orthogonalEdgeStyle;rounded=0;orthogonalLoop=1;jettySize=auto;html=1;exitX=0.5;exitY=1;exitDx=0;exitDy=0;exitPerimeter=0;entryX=1;entryY=0.5;entryDx=0;entryDy=0;entryPerimeter=0;" edge="1" parent="1" source="ZLt139lBljewuqngMx6--19" target="ZLt139lBljewuqngMx6--20">
          <mxGeometry relative="1" as="geometry" />
        </mxCell>
        <mxCell id="ZLt139lBljewuqngMx6--24" style="edgeStyle=orthogonalEdgeStyle;rounded=0;orthogonalLoop=1;jettySize=auto;html=1;entryX=0.422;entryY=1;entryDx=0;entryDy=0;entryPerimeter=0;" edge="1" parent="1" source="ZLt139lBljewuqngMx6--5" target="ZLt139lBljewuqngMx6--10">
          <mxGeometry relative="1" as="geometry">
            <Array as="points">
              <mxPoint x="733.23" y="543.96" />
              <mxPoint x="733.23" y="915.96" />
              <mxPoint x="263.23" y="915.96" />
            </Array>
          </mxGeometry>
        </mxCell>
        <mxCell id="ZLt139lBljewuqngMx6--26" value="" style="rounded=1;whiteSpace=wrap;html=1;fillColor=#e1d5e7;strokeColor=#9673a6;" vertex="1" parent="1">
          <mxGeometry x="640" y="190" width="150" height="249.98" as="geometry" />
        </mxCell>
        <mxCell id="ZLt139lBljewuqngMx6--27" value="Redis Cluster" style="text;html=1;align=center;verticalAlign=middle;whiteSpace=wrap;rounded=0;" vertex="1" parent="1">
          <mxGeometry x="652.0954838709678" y="195.98985221674877" width="125.80645161290323" height="48.02955665024632" as="geometry" />
        </mxCell>
        <mxCell id="ZLt139lBljewuqngMx6--28" value="&lt;div&gt;&lt;span style=&quot;background-color: initial;&quot;&gt;redis-1&lt;br&gt;&lt;/span&gt;(master)&lt;/div&gt;" style="shape=cylinder3;whiteSpace=wrap;html=1;boundedLbl=1;backgroundOutline=1;size=15;" vertex="1" parent="1">
          <mxGeometry x="680" y="254.01999999999998" width="70" height="70" as="geometry" />
        </mxCell>
        <mxCell id="ZLt139lBljewuqngMx6--29" value="&lt;div&gt;&lt;span style=&quot;background-color: initial;&quot;&gt;redis-1&lt;br&gt;&lt;/span&gt;(slave)&lt;/div&gt;" style="shape=cylinder3;whiteSpace=wrap;html=1;boundedLbl=1;backgroundOutline=1;size=15;" vertex="1" parent="1">
          <mxGeometry x="680" y="344.73" width="70" height="70" as="geometry" />
        </mxCell>
        <mxCell id="ZLt139lBljewuqngMx6--30" style="edgeStyle=orthogonalEdgeStyle;rounded=0;orthogonalLoop=1;jettySize=auto;html=1;exitX=0.5;exitY=1;exitDx=0;exitDy=0;exitPerimeter=0;entryX=0.5;entryY=0;entryDx=0;entryDy=0;entryPerimeter=0;" edge="1" parent="1" source="ZLt139lBljewuqngMx6--28" target="ZLt139lBljewuqngMx6--29">
          <mxGeometry relative="1" as="geometry" />
        </mxCell>
        <mxCell id="fLNP4sqJqerO_Z4tSt06-2" value="Site&lt;br&gt;React / Ngnix" style="rounded=1;whiteSpace=wrap;html=1;" vertex="1" parent="1">
          <mxGeometry x="348.23" y="80" width="100" height="50" as="geometry" />
        </mxCell>
        <mxCell id="fLNP4sqJqerO_Z4tSt06-5" value="" style="group" vertex="1" connectable="0" parent="1">
          <mxGeometry x="343.87" y="190" width="120" height="70" as="geometry" />
        </mxCell>
        <mxCell id="fLNP4sqJqerO_Z4tSt06-3" value="APISIX Gateway" style="rounded=1;whiteSpace=wrap;html=1;" vertex="1" parent="fLNP4sqJqerO_Z4tSt06-5">
          <mxGeometry width="120" height="60" as="geometry" />
        </mxCell>
        <mxCell id="fLNP4sqJqerO_Z4tSt06-4" value="consul_kv" style="rounded=1;whiteSpace=wrap;html=1;" vertex="1" parent="fLNP4sqJqerO_Z4tSt06-5">
          <mxGeometry x="25.480000000000018" y="50" width="70" height="20" as="geometry" />
        </mxCell>
        <mxCell id="fLNP4sqJqerO_Z4tSt06-6" value="Consul" style="rounded=1;whiteSpace=wrap;html=1;" vertex="1" parent="1">
          <mxGeometry x="160.97" y="205" width="80" height="30" as="geometry" />
        </mxCell>
        <mxCell id="fLNP4sqJqerO_Z4tSt06-8" style="edgeStyle=orthogonalEdgeStyle;rounded=0;orthogonalLoop=1;jettySize=auto;html=1;exitX=0;exitY=0.5;exitDx=0;exitDy=0;entryX=1;entryY=0.5;entryDx=0;entryDy=0;" edge="1" parent="1" source="fLNP4sqJqerO_Z4tSt06-3" target="fLNP4sqJqerO_Z4tSt06-6">
          <mxGeometry relative="1" as="geometry" />
        </mxCell>
        <mxCell id="fLNP4sqJqerO_Z4tSt06-15" style="edgeStyle=orthogonalEdgeStyle;rounded=0;orthogonalLoop=1;jettySize=auto;html=1;exitX=-0.006;exitY=0.515;exitDx=0;exitDy=0;entryX=0.5;entryY=1;entryDx=0;entryDy=0;exitPerimeter=0;" edge="1" parent="1" source="ZLt139lBljewuqngMx6--1" target="fLNP4sqJqerO_Z4tSt06-6">
          <mxGeometry relative="1" as="geometry">
            <mxPoint x="250" y="370" as="sourcePoint" />
          </mxGeometry>
        </mxCell>
        <mxCell id="fLNP4sqJqerO_Z4tSt06-17" style="edgeStyle=orthogonalEdgeStyle;rounded=0;orthogonalLoop=1;jettySize=auto;html=1;exitX=1;exitY=0.5;exitDx=0;exitDy=0;entryX=0.009;entryY=0.119;entryDx=0;entryDy=0;entryPerimeter=0;" edge="1" parent="1" source="fLNP4sqJqerO_Z4tSt06-3" target="ZLt139lBljewuqngMx6--26">
          <mxGeometry relative="1" as="geometry" />
        </mxCell>
        <mxCell id="fLNP4sqJqerO_Z4tSt06-19" style="edgeStyle=orthogonalEdgeStyle;rounded=0;orthogonalLoop=1;jettySize=auto;html=1;exitX=0.5;exitY=1;exitDx=0;exitDy=0;entryX=0.451;entryY=0.05;entryDx=0;entryDy=0;entryPerimeter=0;" edge="1" parent="1" source="fLNP4sqJqerO_Z4tSt06-2" target="fLNP4sqJqerO_Z4tSt06-3">
          <mxGeometry relative="1" as="geometry" />
        </mxCell>
        <mxCell id="XZRy3JYlxC--EuTqE0wL-1" style="edgeStyle=orthogonalEdgeStyle;rounded=0;orthogonalLoop=1;jettySize=auto;html=1;exitX=1;exitY=0.5;exitDx=0;exitDy=0;entryX=0.005;entryY=0.717;entryDx=0;entryDy=0;entryPerimeter=0;" edge="1" parent="1" source="fLNP4sqJqerO_Z4tSt06-11" target="ZLt139lBljewuqngMx6--26">
          <mxGeometry relative="1" as="geometry">
            <mxPoint x="560" y="370" as="sourcePoint" />
          </mxGeometry>
        </mxCell>
        <mxCell id="XZRy3JYlxC--EuTqE0wL-8" style="edgeStyle=orthogonalEdgeStyle;rounded=0;orthogonalLoop=1;jettySize=auto;html=1;exitX=0.75;exitY=0;exitDx=0;exitDy=0;entryX=0;entryY=0.5;entryDx=0;entryDy=0;" edge="1" parent="1" source="ZLt139lBljewuqngMx6--1" target="ZLt139lBljewuqngMx6--26">
          <mxGeometry relative="1" as="geometry" />
        </mxCell>
        <mxCell id="ZLt139lBljewuqngMx6--1" value="pymongo-api" style="rounded=1;whiteSpace=wrap;html=1;" vertex="1" parent="1">
          <mxGeometry x="270" y="340" width="120" height="60" as="geometry" />
        </mxCell>
        <mxCell id="XZRy3JYlxC--EuTqE0wL-4" style="edgeStyle=orthogonalEdgeStyle;rounded=0;orthogonalLoop=1;jettySize=auto;html=1;exitX=0.5;exitY=1;exitDx=0;exitDy=0;entryX=0.25;entryY=1;entryDx=0;entryDy=0;" edge="1" parent="1" source="fLNP4sqJqerO_Z4tSt06-11" target="fLNP4sqJqerO_Z4tSt06-6">
          <mxGeometry relative="1" as="geometry" />
        </mxCell>
        <mxCell id="fLNP4sqJqerO_Z4tSt06-11" value="pymongo-api" style="rounded=1;whiteSpace=wrap;html=1;" vertex="1" parent="1">
          <mxGeometry x="420" y="340" width="120" height="60" as="geometry" />
        </mxCell>
        <mxCell id="XZRy3JYlxC--EuTqE0wL-2" style="edgeStyle=orthogonalEdgeStyle;rounded=0;orthogonalLoop=1;jettySize=auto;html=1;exitX=0.5;exitY=1;exitDx=0;exitDy=0;entryX=0.5;entryY=0;entryDx=0;entryDy=0;" edge="1" parent="1" source="fLNP4sqJqerO_Z4tSt06-4" target="fLNP4sqJqerO_Z4tSt06-11">
          <mxGeometry relative="1" as="geometry" />
        </mxCell>
        <mxCell id="XZRy3JYlxC--EuTqE0wL-3" style="edgeStyle=orthogonalEdgeStyle;rounded=0;orthogonalLoop=1;jettySize=auto;html=1;exitX=0.5;exitY=1;exitDx=0;exitDy=0;entryX=0.426;entryY=-0.011;entryDx=0;entryDy=0;entryPerimeter=0;" edge="1" parent="1" source="fLNP4sqJqerO_Z4tSt06-4" target="ZLt139lBljewuqngMx6--1">
          <mxGeometry relative="1" as="geometry" />
        </mxCell>
        <mxCell id="XZRy3JYlxC--EuTqE0wL-9" style="edgeStyle=orthogonalEdgeStyle;rounded=0;orthogonalLoop=1;jettySize=auto;html=1;exitX=0.5;exitY=1;exitDx=0;exitDy=0;entryX=0.546;entryY=-0.021;entryDx=0;entryDy=0;entryPerimeter=0;" edge="1" parent="1" source="ZLt139lBljewuqngMx6--1" target="ZLt139lBljewuqngMx6--8">
          <mxGeometry relative="1" as="geometry" />
        </mxCell>
        <mxCell id="XZRy3JYlxC--EuTqE0wL-11" style="edgeStyle=orthogonalEdgeStyle;rounded=0;orthogonalLoop=1;jettySize=auto;html=1;exitX=0.5;exitY=1;exitDx=0;exitDy=0;entryX=0.544;entryY=-0.029;entryDx=0;entryDy=0;entryPerimeter=0;" edge="1" parent="1" source="fLNP4sqJqerO_Z4tSt06-11" target="ZLt139lBljewuqngMx6--8">
          <mxGeometry relative="1" as="geometry" />
        </mxCell>
      </root>
    </mxGraphModel>
  </diagram>
  <diagram id="hY7IpdKm4QwBYMu1rZoF" name="CDN">
    <mxGraphModel dx="858" dy="973" grid="1" gridSize="10" guides="1" tooltips="1" connect="1" arrows="1" fold="1" page="1" pageScale="1" pageWidth="827" pageHeight="1169" math="0" shadow="0">
      <root>
        <mxCell id="0" />
        <mxCell id="1" parent="0" />
        <mxCell id="8x1r0wglaBbKpU-U8N5b-1" style="edgeStyle=orthogonalEdgeStyle;rounded=0;orthogonalLoop=1;jettySize=auto;html=1;exitX=0.888;exitY=1.001;exitDx=0;exitDy=0;entryX=0.5;entryY=1;entryDx=0;entryDy=0;exitPerimeter=0;" edge="1" parent="1" source="8x1r0wglaBbKpU-U8N5b-2" target="8x1r0wglaBbKpU-U8N5b-14">
          <mxGeometry relative="1" as="geometry" />
        </mxCell>
        <mxCell id="8x1r0wglaBbKpU-U8N5b-2" value="config-server" style="rounded=1;whiteSpace=wrap;html=1;" vertex="1" parent="1">
          <mxGeometry x="411.61483870967743" y="479.99940886699505" width="188.70967741935485" height="48.02955665024632" as="geometry" />
        </mxCell>
        <mxCell id="8x1r0wglaBbKpU-U8N5b-3" style="edgeStyle=orthogonalEdgeStyle;rounded=0;orthogonalLoop=1;jettySize=auto;html=1;exitX=1;exitY=0.5;exitDx=0;exitDy=0;entryX=0;entryY=0.5;entryDx=0;entryDy=0;" edge="1" parent="1" source="8x1r0wglaBbKpU-U8N5b-5" target="8x1r0wglaBbKpU-U8N5b-2">
          <mxGeometry relative="1" as="geometry" />
        </mxCell>
        <mxCell id="8x1r0wglaBbKpU-U8N5b-4" style="edgeStyle=orthogonalEdgeStyle;rounded=0;orthogonalLoop=1;jettySize=auto;html=1;exitX=0.5;exitY=1;exitDx=0;exitDy=0;entryX=0.5;entryY=0;entryDx=0;entryDy=0;" edge="1" parent="1">
          <mxGeometry relative="1" as="geometry">
            <mxPoint x="275.3245161290323" y="592.3882512315272" as="sourcePoint" />
            <mxPoint x="463.39" y="721.7478571428571" as="targetPoint" />
          </mxGeometry>
        </mxCell>
        <mxCell id="8x1r0wglaBbKpU-U8N5b-5" value="Router" style="rounded=1;whiteSpace=wrap;html=1;" vertex="1" parent="1">
          <mxGeometry x="201.93741935483868" y="479.99940886699505" width="146.7741935483871" height="48.02955665024632" as="geometry" />
        </mxCell>
        <mxCell id="8x1r0wglaBbKpU-U8N5b-6" style="edgeStyle=orthogonalEdgeStyle;rounded=0;orthogonalLoop=1;jettySize=auto;html=1;exitX=0.5;exitY=1;exitDx=0;exitDy=0;entryX=0.5;entryY=0;entryDx=0;entryDy=0;entryPerimeter=0;" edge="1" parent="1" source="8x1r0wglaBbKpU-U8N5b-5">
          <mxGeometry relative="1" as="geometry">
            <mxPoint x="128.55032258064512" y="656.1077832512317" as="targetPoint" />
            <Array as="points">
              <mxPoint x="275.26" y="592.3885714285715" />
              <mxPoint x="128.26" y="592.3885714285715" />
            </Array>
          </mxGeometry>
        </mxCell>
        <mxCell id="8x1r0wglaBbKpU-U8N5b-7" value="" style="rounded=1;whiteSpace=wrap;html=1;fillColor=#dae8fc;strokeColor=#6c8ebf;" vertex="1" parent="1">
          <mxGeometry x="40" y="657.3885714285715" width="242.26" height="185.71428571428572" as="geometry" />
        </mxCell>
        <mxCell id="8x1r0wglaBbKpU-U8N5b-8" value="Replica 1" style="text;html=1;align=center;verticalAlign=middle;whiteSpace=wrap;rounded=0;" vertex="1" parent="1">
          <mxGeometry x="42.25999999999999" y="666.6742857142858" width="80" height="27.857142857142858" as="geometry" />
        </mxCell>
        <mxCell id="8x1r0wglaBbKpU-U8N5b-9" value="MongoDB - Primary&lt;br&gt;(shard-1)" style="shape=cylinder3;whiteSpace=wrap;html=1;boundedLbl=1;backgroundOutline=1;size=6;" vertex="1" parent="1">
          <mxGeometry x="126.13" y="685.2457142857143" width="70" height="55.714285714285715" as="geometry" />
        </mxCell>
        <mxCell id="8x1r0wglaBbKpU-U8N5b-10" value="MongoDB - Secondary&lt;br&gt;(shard-1-2)" style="shape=cylinder3;whiteSpace=wrap;html=1;boundedLbl=1;backgroundOutline=1;size=6;" vertex="1" parent="1">
          <mxGeometry x="63.22999999999999" y="759.5314285714287" width="70" height="65" as="geometry" />
        </mxCell>
        <mxCell id="8x1r0wglaBbKpU-U8N5b-11" value="MongoDB - Secondary&lt;br&gt;(shard-1-3)" style="shape=cylinder3;whiteSpace=wrap;html=1;boundedLbl=1;backgroundOutline=1;size=6;" vertex="1" parent="1">
          <mxGeometry x="196.13000000000002" y="759.5314285714287" width="70" height="65" as="geometry" />
        </mxCell>
        <mxCell id="8x1r0wglaBbKpU-U8N5b-12" style="edgeStyle=orthogonalEdgeStyle;rounded=0;orthogonalLoop=1;jettySize=auto;html=1;exitX=0.5;exitY=1;exitDx=0;exitDy=0;exitPerimeter=0;entryX=0;entryY=0.5;entryDx=0;entryDy=0;entryPerimeter=0;" edge="1" parent="1" source="8x1r0wglaBbKpU-U8N5b-9" target="8x1r0wglaBbKpU-U8N5b-11">
          <mxGeometry relative="1" as="geometry" />
        </mxCell>
        <mxCell id="8x1r0wglaBbKpU-U8N5b-13" style="edgeStyle=orthogonalEdgeStyle;rounded=0;orthogonalLoop=1;jettySize=auto;html=1;exitX=0.5;exitY=1;exitDx=0;exitDy=0;exitPerimeter=0;entryX=1;entryY=0.5;entryDx=0;entryDy=0;entryPerimeter=0;" edge="1" parent="1" source="8x1r0wglaBbKpU-U8N5b-9" target="8x1r0wglaBbKpU-U8N5b-10">
          <mxGeometry relative="1" as="geometry" />
        </mxCell>
        <mxCell id="8x1r0wglaBbKpU-U8N5b-14" value="" style="rounded=1;whiteSpace=wrap;html=1;fillColor=#dae8fc;strokeColor=#6c8ebf;" vertex="1" parent="1">
          <mxGeometry x="312.26" y="657.3885714285715" width="242.26" height="185.71428571428572" as="geometry" />
        </mxCell>
        <mxCell id="8x1r0wglaBbKpU-U8N5b-15" value="Replica 2" style="text;html=1;align=center;verticalAlign=middle;whiteSpace=wrap;rounded=0;" vertex="1" parent="1">
          <mxGeometry x="316.13" y="666.6742857142858" width="82.26" height="27.857142857142858" as="geometry" />
        </mxCell>
        <mxCell id="8x1r0wglaBbKpU-U8N5b-16" value="MongoDB - Primary&lt;br&gt;(shard-1)" style="shape=cylinder3;whiteSpace=wrap;html=1;boundedLbl=1;backgroundOutline=1;size=6;" vertex="1" parent="1">
          <mxGeometry x="398.39" y="685.2457142857143" width="70" height="55.714285714285715" as="geometry" />
        </mxCell>
        <mxCell id="8x1r0wglaBbKpU-U8N5b-17" value="MongoDB - Secondary&lt;br&gt;(shard-1-2)" style="shape=cylinder3;whiteSpace=wrap;html=1;boundedLbl=1;backgroundOutline=1;size=6;" vertex="1" parent="1">
          <mxGeometry x="335.49" y="759.5314285714287" width="70" height="65" as="geometry" />
        </mxCell>
        <mxCell id="8x1r0wglaBbKpU-U8N5b-18" value="MongoDB - Secondary&lt;br&gt;(shard-1-3)" style="shape=cylinder3;whiteSpace=wrap;html=1;boundedLbl=1;backgroundOutline=1;size=6;" vertex="1" parent="1">
          <mxGeometry x="468.39" y="759.5314285714287" width="70" height="65" as="geometry" />
        </mxCell>
        <mxCell id="8x1r0wglaBbKpU-U8N5b-19" style="edgeStyle=orthogonalEdgeStyle;rounded=0;orthogonalLoop=1;jettySize=auto;html=1;exitX=0.5;exitY=1;exitDx=0;exitDy=0;exitPerimeter=0;entryX=0;entryY=0.5;entryDx=0;entryDy=0;entryPerimeter=0;" edge="1" parent="1" source="8x1r0wglaBbKpU-U8N5b-16" target="8x1r0wglaBbKpU-U8N5b-18">
          <mxGeometry relative="1" as="geometry" />
        </mxCell>
        <mxCell id="8x1r0wglaBbKpU-U8N5b-20" style="edgeStyle=orthogonalEdgeStyle;rounded=0;orthogonalLoop=1;jettySize=auto;html=1;exitX=0.5;exitY=1;exitDx=0;exitDy=0;exitPerimeter=0;entryX=1;entryY=0.5;entryDx=0;entryDy=0;entryPerimeter=0;" edge="1" parent="1" source="8x1r0wglaBbKpU-U8N5b-16" target="8x1r0wglaBbKpU-U8N5b-17">
          <mxGeometry relative="1" as="geometry" />
        </mxCell>
        <mxCell id="8x1r0wglaBbKpU-U8N5b-21" style="edgeStyle=orthogonalEdgeStyle;rounded=0;orthogonalLoop=1;jettySize=auto;html=1;entryX=0.422;entryY=1;entryDx=0;entryDy=0;entryPerimeter=0;" edge="1" parent="1" source="8x1r0wglaBbKpU-U8N5b-2" target="8x1r0wglaBbKpU-U8N5b-7">
          <mxGeometry relative="1" as="geometry">
            <Array as="points">
              <mxPoint x="612.26" y="503.96000000000004" />
              <mxPoint x="612.26" y="875.96" />
              <mxPoint x="142.26000000000002" y="875.96" />
            </Array>
          </mxGeometry>
        </mxCell>
        <mxCell id="8x1r0wglaBbKpU-U8N5b-22" value="" style="rounded=1;whiteSpace=wrap;html=1;fillColor=#e1d5e7;strokeColor=#9673a6;" vertex="1" parent="1">
          <mxGeometry x="519.03" y="150" width="150" height="249.98" as="geometry" />
        </mxCell>
        <mxCell id="8x1r0wglaBbKpU-U8N5b-23" value="Redis Cluster" style="text;html=1;align=center;verticalAlign=middle;whiteSpace=wrap;rounded=0;" vertex="1" parent="1">
          <mxGeometry x="531.1254838709677" y="155.98985221674877" width="125.80645161290323" height="48.02955665024632" as="geometry" />
        </mxCell>
        <mxCell id="8x1r0wglaBbKpU-U8N5b-24" value="&lt;div&gt;&lt;span style=&quot;background-color: initial;&quot;&gt;redis-1&lt;br&gt;&lt;/span&gt;(master)&lt;/div&gt;" style="shape=cylinder3;whiteSpace=wrap;html=1;boundedLbl=1;backgroundOutline=1;size=15;" vertex="1" parent="1">
          <mxGeometry x="559.03" y="214.01999999999998" width="70" height="70" as="geometry" />
        </mxCell>
        <mxCell id="8x1r0wglaBbKpU-U8N5b-25" value="&lt;div&gt;&lt;span style=&quot;background-color: initial;&quot;&gt;redis-1&lt;br&gt;&lt;/span&gt;(slave)&lt;/div&gt;" style="shape=cylinder3;whiteSpace=wrap;html=1;boundedLbl=1;backgroundOutline=1;size=15;" vertex="1" parent="1">
          <mxGeometry x="559.03" y="304.73" width="70" height="70" as="geometry" />
        </mxCell>
        <mxCell id="8x1r0wglaBbKpU-U8N5b-26" style="edgeStyle=orthogonalEdgeStyle;rounded=0;orthogonalLoop=1;jettySize=auto;html=1;exitX=0.5;exitY=1;exitDx=0;exitDy=0;exitPerimeter=0;entryX=0.5;entryY=0;entryDx=0;entryDy=0;entryPerimeter=0;" edge="1" parent="1" source="8x1r0wglaBbKpU-U8N5b-24" target="8x1r0wglaBbKpU-U8N5b-25">
          <mxGeometry relative="1" as="geometry" />
        </mxCell>
        <mxCell id="8x1r0wglaBbKpU-U8N5b-27" value="Site&lt;br&gt;React / Ngnix" style="rounded=1;whiteSpace=wrap;html=1;" vertex="1" parent="1">
          <mxGeometry x="227.26000000000002" y="40" width="100" height="50" as="geometry" />
        </mxCell>
        <mxCell id="8x1r0wglaBbKpU-U8N5b-28" value="" style="group" vertex="1" connectable="0" parent="1">
          <mxGeometry x="222.9" y="150" width="120" height="70" as="geometry" />
        </mxCell>
        <mxCell id="8x1r0wglaBbKpU-U8N5b-29" value="APISIX Gateway" style="rounded=1;whiteSpace=wrap;html=1;" vertex="1" parent="8x1r0wglaBbKpU-U8N5b-28">
          <mxGeometry width="120" height="60" as="geometry" />
        </mxCell>
        <mxCell id="8x1r0wglaBbKpU-U8N5b-30" value="consul_kv" style="rounded=1;whiteSpace=wrap;html=1;" vertex="1" parent="8x1r0wglaBbKpU-U8N5b-28">
          <mxGeometry x="25.480000000000018" y="50" width="70" height="20" as="geometry" />
        </mxCell>
        <mxCell id="8x1r0wglaBbKpU-U8N5b-31" value="Consul" style="rounded=1;whiteSpace=wrap;html=1;" vertex="1" parent="1">
          <mxGeometry x="40" y="165" width="80" height="30" as="geometry" />
        </mxCell>
        <mxCell id="8x1r0wglaBbKpU-U8N5b-32" style="edgeStyle=orthogonalEdgeStyle;rounded=0;orthogonalLoop=1;jettySize=auto;html=1;exitX=0;exitY=0.5;exitDx=0;exitDy=0;entryX=1;entryY=0.5;entryDx=0;entryDy=0;" edge="1" parent="1" source="8x1r0wglaBbKpU-U8N5b-29" target="8x1r0wglaBbKpU-U8N5b-31">
          <mxGeometry relative="1" as="geometry" />
        </mxCell>
        <mxCell id="8x1r0wglaBbKpU-U8N5b-33" style="edgeStyle=orthogonalEdgeStyle;rounded=0;orthogonalLoop=1;jettySize=auto;html=1;exitX=-0.006;exitY=0.515;exitDx=0;exitDy=0;entryX=0.5;entryY=1;entryDx=0;entryDy=0;exitPerimeter=0;" edge="1" parent="1" source="8x1r0wglaBbKpU-U8N5b-38" target="8x1r0wglaBbKpU-U8N5b-31">
          <mxGeometry relative="1" as="geometry">
            <mxPoint x="129.03" y="330" as="sourcePoint" />
          </mxGeometry>
        </mxCell>
        <mxCell id="8x1r0wglaBbKpU-U8N5b-34" style="edgeStyle=orthogonalEdgeStyle;rounded=0;orthogonalLoop=1;jettySize=auto;html=1;exitX=1;exitY=0.5;exitDx=0;exitDy=0;entryX=0.009;entryY=0.119;entryDx=0;entryDy=0;entryPerimeter=0;" edge="1" parent="1" source="8x1r0wglaBbKpU-U8N5b-29" target="8x1r0wglaBbKpU-U8N5b-22">
          <mxGeometry relative="1" as="geometry" />
        </mxCell>
        <mxCell id="8x1r0wglaBbKpU-U8N5b-35" style="edgeStyle=orthogonalEdgeStyle;rounded=0;orthogonalLoop=1;jettySize=auto;html=1;exitX=0.5;exitY=1;exitDx=0;exitDy=0;entryX=0.451;entryY=0.05;entryDx=0;entryDy=0;entryPerimeter=0;" edge="1" parent="1" source="8x1r0wglaBbKpU-U8N5b-27" target="8x1r0wglaBbKpU-U8N5b-29">
          <mxGeometry relative="1" as="geometry" />
        </mxCell>
        <mxCell id="8x1r0wglaBbKpU-U8N5b-36" style="edgeStyle=orthogonalEdgeStyle;rounded=0;orthogonalLoop=1;jettySize=auto;html=1;exitX=1;exitY=0.5;exitDx=0;exitDy=0;entryX=0.005;entryY=0.717;entryDx=0;entryDy=0;entryPerimeter=0;" edge="1" parent="1" source="8x1r0wglaBbKpU-U8N5b-40" target="8x1r0wglaBbKpU-U8N5b-22">
          <mxGeometry relative="1" as="geometry">
            <mxPoint x="439.03" y="330" as="sourcePoint" />
          </mxGeometry>
        </mxCell>
        <mxCell id="8x1r0wglaBbKpU-U8N5b-37" style="edgeStyle=orthogonalEdgeStyle;rounded=0;orthogonalLoop=1;jettySize=auto;html=1;exitX=0.75;exitY=0;exitDx=0;exitDy=0;entryX=0;entryY=0.5;entryDx=0;entryDy=0;" edge="1" parent="1" source="8x1r0wglaBbKpU-U8N5b-38" target="8x1r0wglaBbKpU-U8N5b-22">
          <mxGeometry relative="1" as="geometry" />
        </mxCell>
        <mxCell id="8x1r0wglaBbKpU-U8N5b-38" value="pymongo-api" style="rounded=1;whiteSpace=wrap;html=1;" vertex="1" parent="1">
          <mxGeometry x="149.03" y="300" width="120" height="60" as="geometry" />
        </mxCell>
        <mxCell id="8x1r0wglaBbKpU-U8N5b-39" style="edgeStyle=orthogonalEdgeStyle;rounded=0;orthogonalLoop=1;jettySize=auto;html=1;exitX=0.5;exitY=1;exitDx=0;exitDy=0;entryX=0.25;entryY=1;entryDx=0;entryDy=0;" edge="1" parent="1" source="8x1r0wglaBbKpU-U8N5b-40" target="8x1r0wglaBbKpU-U8N5b-31">
          <mxGeometry relative="1" as="geometry" />
        </mxCell>
        <mxCell id="8x1r0wglaBbKpU-U8N5b-40" value="pymongo-api" style="rounded=1;whiteSpace=wrap;html=1;" vertex="1" parent="1">
          <mxGeometry x="299.03" y="300" width="120" height="60" as="geometry" />
        </mxCell>
        <mxCell id="8x1r0wglaBbKpU-U8N5b-41" style="edgeStyle=orthogonalEdgeStyle;rounded=0;orthogonalLoop=1;jettySize=auto;html=1;exitX=0.5;exitY=1;exitDx=0;exitDy=0;entryX=0.5;entryY=0;entryDx=0;entryDy=0;" edge="1" parent="1" source="8x1r0wglaBbKpU-U8N5b-30" target="8x1r0wglaBbKpU-U8N5b-40">
          <mxGeometry relative="1" as="geometry" />
        </mxCell>
        <mxCell id="8x1r0wglaBbKpU-U8N5b-42" style="edgeStyle=orthogonalEdgeStyle;rounded=0;orthogonalLoop=1;jettySize=auto;html=1;exitX=0.5;exitY=1;exitDx=0;exitDy=0;entryX=0.426;entryY=-0.011;entryDx=0;entryDy=0;entryPerimeter=0;" edge="1" parent="1" source="8x1r0wglaBbKpU-U8N5b-30" target="8x1r0wglaBbKpU-U8N5b-38">
          <mxGeometry relative="1" as="geometry" />
        </mxCell>
        <mxCell id="8x1r0wglaBbKpU-U8N5b-43" style="edgeStyle=orthogonalEdgeStyle;rounded=0;orthogonalLoop=1;jettySize=auto;html=1;exitX=0.5;exitY=1;exitDx=0;exitDy=0;entryX=0.546;entryY=-0.021;entryDx=0;entryDy=0;entryPerimeter=0;" edge="1" parent="1" source="8x1r0wglaBbKpU-U8N5b-38" target="8x1r0wglaBbKpU-U8N5b-5">
          <mxGeometry relative="1" as="geometry" />
        </mxCell>
        <mxCell id="8x1r0wglaBbKpU-U8N5b-44" style="edgeStyle=orthogonalEdgeStyle;rounded=0;orthogonalLoop=1;jettySize=auto;html=1;exitX=0.5;exitY=1;exitDx=0;exitDy=0;entryX=0.544;entryY=-0.029;entryDx=0;entryDy=0;entryPerimeter=0;" edge="1" parent="1" source="8x1r0wglaBbKpU-U8N5b-40" target="8x1r0wglaBbKpU-U8N5b-5">
          <mxGeometry relative="1" as="geometry" />
        </mxCell>
        <mxCell id="8x1r0wglaBbKpU-U8N5b-45" value="CDN&lt;br&gt;S3" style="ellipse;shape=cloud;whiteSpace=wrap;html=1;" vertex="1" parent="1">
          <mxGeometry x="520" y="25" width="120" height="80" as="geometry" />
        </mxCell>
        <mxCell id="8x1r0wglaBbKpU-U8N5b-46" style="edgeStyle=orthogonalEdgeStyle;rounded=0;orthogonalLoop=1;jettySize=auto;html=1;exitX=1;exitY=0.5;exitDx=0;exitDy=0;entryX=0.105;entryY=0.51;entryDx=0;entryDy=0;entryPerimeter=0;" edge="1" parent="1" source="8x1r0wglaBbKpU-U8N5b-27" target="8x1r0wglaBbKpU-U8N5b-45">
          <mxGeometry relative="1" as="geometry" />
        </mxCell>
      </root>
    </mxGraphModel>
  </diagram>
</mxfile>
